<mxfile host="app.diagrams.net" modified="2023-11-09T11:06:00.473Z" agent="Mozilla/5.0 (Windows NT 10.0; Win64; x64) AppleWebKit/537.36 (KHTML, like Gecko) Chrome/119.0.0.0 Safari/537.36" version="21.6.9" etag="Cv1kP4PUZxwrAQLEhAJV" type="github">
  <diagram name="페이지-1" id="LThJ8I2nnwfeWupyHqeO">
    <mxGraphModel>
      <root>
        <mxCell id="0" />
        <mxCell id="1" parent="0" />
      </root>
    </mxGraphModel>
  </diagram>
</mxfile>
